Coordinates
version=1
nRows=11
nColumns=21
inDegrees=yes

Units are S.I. units (second, meters, Newtons, ...)
If the header above contains a line with 'inDegrees', this indicates whether rotational values are in degrees (yes) or radians (no).

endheader
time	sternoclavicular_r2	sternoclavicular_r3	unrotscap_r3	unrotscap_r2	acromioclavicular_r2	acromioclavicular_r3	acromioclavicular_r1	unrothum_r1	unrothum_r3	unrothum_r2	elv_angle	shoulder_elev	shoulder1_r2	shoulder_rot	elbow_flexion	pro_sup	deviation	flexion	wrist_hand_r1	wrist_hand_r3
      5.05050505	     -5.33142481	      2.25813992	     -2.25813992	      5.33142481	     -1.07950508	      8.72418029	      3.92145900	     -3.92145900	     -8.72418029	      1.07950508	    -70.04548119	     22.03063167	     70.04548119	     12.97835421	    112.11554604	      0.00000000	      0.00000000	     -0.00000000	     -0.00000000	      0.00000000
      5.15151515	     -5.22487086	      2.21300869	     -2.21300869	      5.22487086	     -1.05793007	      8.54981866	      3.84308465	     -3.84308465	     -8.54981866	      1.05793007	    -70.27043490	     21.59032705	     70.27043490	     13.22000704	    111.49227838	      0.00000000	      0.00000000	     -0.00000000	     -0.00000000	      0.00000000
      5.25252525	     -5.11860473	      2.16799938	     -2.16799938	      5.11860473	     -1.03641334	      8.37592803	      3.76492200	     -3.76492200	     -8.37592803	      1.03641334	    -70.50322957	     21.15121181	     70.50322957	     13.45731900	    110.86474763	      0.00000000	      0.00000000	     -0.00000000	     -0.00000000	      0.00000000
      5.35353535	     -5.01284819	      2.12320590	     -2.12320590	      5.01284819	     -1.01499979	      8.20287126	      3.68713418	     -3.68713418	     -8.20287126	      1.01499979	    -70.74052699	     20.71420227	     70.74052699	     13.69101727	    110.23397587	      0.00000000	      0.00000000	     -0.00000000	     -0.00000000	      0.00000000
      5.45454545	     -4.90779264	      2.07870933	     -2.07870933	      4.90779264	     -0.99372818	      8.03096159	      3.60986196	     -3.60986196	     -8.03096159	      0.99372818	    -70.97987174	     20.28008944	     70.97987174	     13.92149265	    109.60102022	      0.00000000	      0.00000000	     -0.00000000	     -0.00000000	      0.00000000
      5.55555556	     -4.80360830	      2.03458176	     -2.03458176	      4.80360830	     -0.97263297	      7.86047751	      3.53323054	     -3.53323054	     -7.86047751	      0.97263297	    -71.21946784	     19.84957657	     71.21946784	     14.14888930	    108.96696823	      0.00000000	      0.00000000	     -0.00000000	     -0.00000000	      0.00000000
      5.65656566	     -4.70045072	      1.99088908	     -1.99088908	      4.70045072	     -0.95174566	      7.69167361	      3.45735435	     -3.45735435	     -7.69167361	      0.95174566	    -71.45800509	     19.42330655	     71.45800509	     14.37317283	    108.33293361	      0.00000000	      0.00000000	     -0.00000000	     -0.00000000	      0.00000000
      5.75757576	     -4.59846558	      1.94769299	     -1.94769299	      4.59846558	     -0.93109574	      7.52478826	      3.38234053	     -3.38234053	     -7.52478826	      0.93109574	    -71.69452093	     19.00188131	     71.69452093	     14.59418265	    107.70005193	      0.00000000	      0.00000000	     -0.00000000	     -0.00000000	      0.00000000
      5.85858586	     -4.49779192	      1.90505237	     -1.90505237	      4.49779192	     -0.91071137	      7.36004896	      3.30829135	     -3.30829135	     -7.36004896	      0.91071137	    -71.92828905	     18.58587537	     71.92828905	     14.81167283	    107.06947620	      0.00000000	      0.00000000	     -0.00000000	     -0.00000000	      0.00000000
      5.95959596	     -4.39856426	      1.86302422	     -1.86302422	      4.39856426	     -0.89061979	      7.19767585	      3.23530576	     -3.23530576	     -7.19767585	      0.89061979	    -72.15872884	     18.17584463	     72.15872884	     15.02534405	    106.44237226	      0.00000000	      0.00000000	     -0.00000000	     -0.00000000	      0.00000000
      6.06060606	     -4.30091388	      1.82166413	     -1.82166413	      4.30091388	     -0.87084757	      7.03788377	      3.16348032	     -3.16348032	     -7.03788377	      0.87084757	    -72.38533295	     17.77233159	     72.38533295	     15.23486862	    105.81991364	      0.00000000	      0.00000000	     -0.00000000	     -0.00000000	      0.00000000
